<svg width="20" height="20" viewBox="0 0 20 20" xmlns="http://www.w3.org/2000/svg">
  <path d="M19.6 10.23c0-.82-.07-1.43-.2-2.05H10v3.72h5.5c-.15.96-.74 2.31-2.04 3.22v2.45h3.16c1.89-1.73 2.98-4.3 2.98-7.34z" fill="#4285F4"/>
  <path d="M10 20c2.7 0 4.96-.89 6.62-2.42l-3.16-2.45c-.9.6-2.06.98-3.46.98-2.65 0-4.89-1.73-5.69-4.21H1v2.53C2.64 17.75 6.09 20 10 20z" fill="#34A853"/>
  <path d="M4.31 11.9c-.21-.6-.33-1.24-.33-1.9s.12-1.3.33-1.9V5.57H1C.36 6.86 0 8.37 0 10s.36 3.14 1 4.43l3.31-2.53z" fill="#FBBC05"/>
  <path d="M10 3.89c1.5 0 2.84.51 3.9 1.52l2.9-2.9C14.96.99 12.7 0 10 0 6.09 0 2.64 2.25 1 5.57l3.31 2.53C5.11 5.62 7.35 3.89 10 3.89z" fill="#EA4335"/>
</svg>
