<svg xmlns="http://www.w3.org/2000/svg" xmlns:xlink="http://www.w3.org/1999/xlink" width="2400" zoomAndPan="magnify" viewBox="0 0 1800 449.999984" height="600" preserveAspectRatio="xMidYMid meet" version="1.0"><defs><g/><clipPath id="0e439dd456"><path d="M 0.558594 5 L 301 5 L 301 440 L 0.558594 440 Z M 0.558594 5 " clip-rule="nonzero"/></clipPath><clipPath id="8bf8ed6c4a"><rect x="0" width="310" y="0" height="450"/></clipPath><clipPath id="a121a71ba7"><rect x="0" width="1521" y="0" height="224"/></clipPath></defs><g transform="matrix(1, 0, 0, 1, 310, 0)"><g clip-path="url(#8bf8ed6c4a)"><g clip-path="url(#0e439dd456)"><g fill="#000000" fill-opacity="1"><g transform="translate(0.717736, 307.175232)"><g><path d="M 298.6875 48.265625 C 299.125 49.148438 299.394531 50.082031 299.5 51.0625 C 299.6875 52.4375 299.097656 53.347656 297.734375 53.796875 C 293.515625 55.316406 290.320312 54.1875 288.15625 50.40625 C 286.632812 47.707031 285.238281 44.910156 283.96875 42.015625 C 281.019531 35.097656 278.394531 28.046875 276.09375 20.859375 C 273.789062 13.671875 271.65625 6.472656 269.6875 -0.734375 C 267.96875 -7.109375 266.300781 -13.488281 264.6875 -19.875 C 263.601562 -24.382812 262.472656 -28.921875 261.296875 -33.484375 C 260.765625 -35.734375 260.117188 -37.128906 259.359375 -37.671875 C 258.597656 -38.210938 257.085938 -38.4375 254.828125 -38.34375 C 247.460938 -37.894531 240.128906 -37.453125 232.828125 -37.015625 C 225.117188 -36.566406 217.441406 -36.195312 209.796875 -35.90625 C 207.878906 -35.757812 206.453125 -35.207031 205.515625 -34.25 C 204.585938 -33.289062 203.90625 -31.957031 203.46875 -30.25 C 198.757812 -12.4375 193.210938 5.175781 186.828125 22.59375 C 182.515625 34.019531 177.769531 45.265625 172.59375 56.328125 C 167.414062 67.390625 161.46875 78.046875 154.75 88.296875 C 148.71875 97.472656 141.554688 105.664062 133.265625 112.875 C 125.023438 120.132812 115.679688 124.992188 105.234375 127.453125 C 90.859375 130.785156 77.191406 129.019531 64.234375 122.15625 C 56.484375 117.832031 49.640625 112.4375 43.703125 105.96875 C 23.835938 84.375 9.984375 59.425781 2.140625 31.125 C 0.710938 25.976562 0 20.707031 0 15.3125 L 0 14.9375 C 0 13.851562 0.046875 12.722656 0.140625 11.546875 C 0.929688 -0.960938 6.820312 -10.304688 17.8125 -16.484375 C 22.03125 -18.742188 26.367188 -20.546875 30.828125 -21.890625 C 35.296875 -23.242188 39.859375 -24.238281 44.515625 -24.875 C 58.453125 -27.03125 72.4375 -28.914062 86.46875 -30.53125 C 108.78125 -33.039062 131.171875 -35.375 153.640625 -37.53125 C 161.492188 -38.257812 169.320312 -38.894531 177.125 -39.4375 C 180.894531 -39.632812 184.625 -39.90625 188.3125 -40.25 C 190.851562 -40.351562 192.566406 -40.695312 193.453125 -41.28125 C 194.335938 -41.875 195.050781 -43.367188 195.59375 -45.765625 C 196.96875 -50.816406 198.316406 -55.945312 199.640625 -61.15625 C 208.660156 -100.84375 215.820312 -140.867188 221.125 -181.234375 C 224.707031 -206.398438 227.53125 -231.617188 229.59375 -256.890625 C 230.125 -264.835938 230.488281 -272.804688 230.6875 -280.796875 C 230.789062 -284.378906 230.960938 -287.9375 231.203125 -291.46875 C 231.203125 -292.007812 231.203125 -292.550781 231.203125 -293.09375 C 231.203125 -294.164062 231.253906 -295.195312 231.359375 -296.1875 C 231.453125 -298.238281 231.953125 -299.671875 232.859375 -300.484375 C 233.765625 -301.296875 235.25 -301.703125 237.3125 -301.703125 C 239.375 -301.796875 240.859375 -301.4375 241.765625 -300.625 C 242.671875 -299.820312 243.125 -298.34375 243.125 -296.1875 C 243.125 -288.96875 243.125 -281.535156 243.125 -273.890625 C 243.125 -270.648438 243.125 -267.335938 243.125 -263.953125 C 243.5625 -243.347656 244.710938 -222.203125 246.578125 -200.515625 C 248.597656 -176.234375 251.296875 -152 254.671875 -127.8125 C 258.109375 -102.695312 262.625 -77.78125 268.21875 -53.0625 C 268.46875 -51.882812 268.738281 -50.753906 269.03125 -49.671875 C 269.269531 -48.984375 269.488281 -48.269531 269.6875 -47.53125 C 270.320312 -45.476562 271.722656 -44.570312 273.890625 -44.8125 C 278.546875 -44.90625 283.253906 -45.003906 288.015625 -45.109375 C 290.273438 -45.304688 292.382812 -44.863281 294.34375 -43.78125 C 295.082031 -43.238281 295.453125 -42.429688 295.453125 -41.359375 C 295.347656 -40.816406 295.097656 -40.410156 294.703125 -40.140625 C 294.316406 -39.867188 293.925781 -39.734375 293.53125 -39.734375 C 291.226562 -39.640625 288.898438 -39.59375 286.546875 -39.59375 C 285.460938 -39.488281 284.378906 -39.4375 283.296875 -39.4375 C 282.660156 -39.4375 282.070312 -39.4375 281.53125 -39.4375 C 279.570312 -39.4375 277.6875 -39.390625 275.875 -39.296875 C 273.070312 -39.046875 271.992188 -37.523438 272.640625 -34.734375 C 273.078125 -32.921875 273.566406 -31.082031 274.109375 -29.21875 C 275.722656 -21.90625 277.535156 -14.691406 279.546875 -7.578125 C 282.148438 1.941406 284.957031 11.394531 287.96875 20.78125 C 290.988281 30.175781 294.5625 39.335938 298.6875 48.265625 Z M 191.03125 -29.0625 C 191.664062 -31.21875 191.738281 -32.648438 191.25 -33.359375 C 190.757812 -34.078125 189.4375 -34.3125 187.28125 -34.0625 C 178.25 -33.425781 169.242188 -32.617188 160.265625 -31.640625 C 158.546875 -31.546875 156.832031 -31.398438 155.125 -31.203125 C 135.007812 -29.234375 114.921875 -27.125 94.859375 -24.875 C 79.992188 -23.15625 65.101562 -21.21875 50.1875 -19.0625 C 43.363281 -18.175781 36.71875 -16.382812 30.25 -13.6875 C 17.539062 -8.382812 11.285156 1.15625 11.484375 14.9375 C 11.578125 19.59375 12.113281 24.226562 13.09375 28.84375 C 14.519531 34.6875 16.335938 40.363281 18.546875 45.875 C 20.753906 51.394531 23.207031 56.78125 25.90625 62.03125 C 33.019531 76.84375 42.144531 90.234375 53.28125 102.203125 C 59.113281 108.585938 65.734375 113.816406 73.140625 117.890625 C 85.796875 124.503906 98.378906 124.40625 110.890625 117.59375 C 118.441406 113.613281 125.085938 108.4375 130.828125 102.0625 C 139.460938 92.445312 146.800781 81.972656 152.84375 70.640625 C 165.445312 46.796875 175.695312 21.925781 183.59375 -3.96875 C 186.195312 -12.3125 188.675781 -20.675781 191.03125 -29.0625 Z M 257.40625 -44.8125 C 257.5 -44.90625 257.546875 -45.003906 257.546875 -45.109375 C 257.648438 -45.203125 257.738281 -45.3125 257.8125 -45.4375 C 257.882812 -45.5625 257.847656 -45.625 257.703125 -45.625 C 248.128906 -91.144531 241.113281 -137.109375 236.65625 -183.515625 C 236.457031 -185.035156 236.1875 -186.554688 235.84375 -188.078125 C 235.738281 -188.378906 235.539062 -188.75 235.25 -189.1875 C 235.007812 -189.382812 234.789062 -189.703125 234.59375 -190.140625 C 234.050781 -186.265625 233.460938 -182.390625 232.828125 -178.515625 C 231.597656 -169.878906 230.296875 -161.296875 228.921875 -152.765625 C 227.054688 -140.347656 225 -127.984375 222.75 -115.671875 C 221.46875 -108.753906 220.117188 -101.863281 218.703125 -95 C 217.617188 -89.695312 216.585938 -84.347656 215.609375 -78.953125 C 214.523438 -73.660156 213.296875 -68.410156 211.921875 -63.203125 C 210.203125 -56.441406 208.734375 -49.597656 207.515625 -42.671875 C 210.359375 -42.335938 215.066406 -42.253906 221.640625 -42.421875 C 228.210938 -42.585938 234.921875 -42.890625 241.765625 -43.328125 C 248.609375 -43.773438 253.820312 -44.269531 257.40625 -44.8125 Z M 257.40625 -44.8125 "/></g></g></g></g></g></g><g transform="matrix(1, 0, 0, 1, 142, 81)"><g clip-path="url(#a121a71ba7)"><g fill="#000000" fill-opacity="1"><g transform="translate(0.0798018, 169.721514)"><g><path d="M 99.734375 -97.03125 C 99.734375 -89.550781 97.960938 -82.878906 94.421875 -77.015625 C 90.878906 -71.160156 85.820312 -66.554688 79.25 -63.203125 C 72.675781 -59.847656 64.941406 -58.171875 56.046875 -58.171875 C 50.640625 -58.171875 44.84375 -58.753906 38.65625 -59.921875 L 38.65625 -17.78125 C 38.65625 -12.757812 39.296875 -8.925781 40.578125 -6.28125 C 41.867188 -3.632812 43.285156 -1.859375 44.828125 -0.953125 C 46.378906 -0.0546875 47.15625 0.257812 47.15625 0 L 16.421875 0 C 16.421875 0.257812 17.191406 -0.0546875 18.734375 -0.953125 C 20.285156 -1.859375 21.671875 -3.597656 22.890625 -6.171875 C 24.117188 -8.753906 24.734375 -12.625 24.734375 -17.78125 L 24.734375 -114.609375 C 24.734375 -119.765625 24.117188 -123.695312 22.890625 -126.40625 C 21.671875 -129.113281 20.285156 -130.945312 18.734375 -131.90625 C 17.191406 -132.875 16.421875 -133.234375 16.421875 -132.984375 L 54.3125 -132.984375 C 60.882812 -132.984375 66.296875 -132.5625 70.546875 -131.71875 C 74.796875 -130.882812 78.535156 -129.628906 81.765625 -127.953125 C 87.554688 -124.984375 92 -120.695312 95.09375 -115.09375 C 98.1875 -109.488281 99.734375 -103.46875 99.734375 -97.03125 Z M 84.84375 -94.515625 C 84.84375 -103.660156 82.007812 -111.066406 76.34375 -116.734375 C 70.675781 -122.410156 63.140625 -125.25 53.734375 -125.25 L 38.65625 -125.25 L 38.65625 -67.453125 C 44.195312 -66.421875 49.992188 -65.90625 56.046875 -65.90625 C 65.066406 -65.90625 72.117188 -68.515625 77.203125 -73.734375 C 82.296875 -78.953125 84.84375 -85.878906 84.84375 -94.515625 Z M 84.84375 -94.515625 "/></g></g></g><g fill="#000000" fill-opacity="1"><g transform="translate(105.992133, 169.721514)"><g><path d="M 16.234375 0 C 16.234375 0.382812 17.003906 0.0976562 18.546875 -0.859375 C 20.097656 -1.828125 21.515625 -3.632812 22.796875 -6.28125 C 24.085938 -8.925781 24.734375 -12.820312 24.734375 -17.96875 L 24.734375 -115 C 24.734375 -120.15625 24.117188 -124.050781 22.890625 -126.6875 C 21.671875 -129.332031 20.285156 -131.101562 18.734375 -132 C 17.191406 -132.90625 16.421875 -133.234375 16.421875 -132.984375 L 47.15625 -132.984375 C 47.15625 -133.234375 46.378906 -132.90625 44.828125 -132 C 43.285156 -131.101562 41.867188 -129.332031 40.578125 -126.6875 C 39.296875 -124.050781 38.65625 -120.15625 38.65625 -115 L 38.65625 -17.96875 C 38.65625 -12.820312 39.296875 -8.925781 40.578125 -6.28125 C 41.867188 -3.632812 43.285156 -1.859375 44.828125 -0.953125 C 46.378906 -0.0546875 47.15625 0.257812 47.15625 0 Z M 16.234375 0 "/></g></g></g><g fill="#000000" fill-opacity="1"><g transform="translate(166.292621, 169.721514)"><g><path d="M 24.734375 -115 C 24.734375 -120.15625 24.117188 -124.050781 22.890625 -126.6875 C 21.671875 -129.332031 20.285156 -131.101562 18.734375 -132 C 17.191406 -132.90625 16.421875 -133.234375 16.421875 -132.984375 L 47.15625 -132.984375 C 47.15625 -133.234375 46.378906 -132.90625 44.828125 -132 C 43.285156 -131.101562 41.867188 -129.332031 40.578125 -126.6875 C 39.296875 -124.050781 38.65625 -120.15625 38.65625 -115 L 38.65625 -7.734375 L 70.359375 -7.734375 C 76.148438 -7.734375 81.140625 -8.921875 85.328125 -11.296875 C 89.515625 -13.679688 92.515625 -16.742188 94.328125 -20.484375 L 90.84375 0 L 16.421875 0 C 16.421875 0.382812 17.191406 0.0976562 18.734375 -0.859375 C 20.285156 -1.828125 21.671875 -3.757812 22.890625 -6.65625 C 24.117188 -9.5625 24.734375 -13.785156 24.734375 -19.328125 Z M 24.734375 -115 "/></g></g></g><g fill="#000000" fill-opacity="1"><g transform="translate(264.087521, 169.721514)"><g><path d="M 16.234375 0 C 16.234375 0.382812 17.003906 0.0976562 18.546875 -0.859375 C 20.097656 -1.828125 21.515625 -3.632812 22.796875 -6.28125 C 24.085938 -8.925781 24.734375 -12.820312 24.734375 -17.96875 L 24.734375 -115 C 24.734375 -120.15625 24.117188 -124.050781 22.890625 -126.6875 C 21.671875 -129.332031 20.285156 -131.101562 18.734375 -132 C 17.191406 -132.90625 16.421875 -133.234375 16.421875 -132.984375 L 47.15625 -132.984375 C 47.15625 -133.234375 46.378906 -132.90625 44.828125 -132 C 43.285156 -131.101562 41.867188 -129.332031 40.578125 -126.6875 C 39.296875 -124.050781 38.65625 -120.15625 38.65625 -115 L 38.65625 -17.96875 C 38.65625 -12.820312 39.296875 -8.925781 40.578125 -6.28125 C 41.867188 -3.632812 43.285156 -1.859375 44.828125 -0.953125 C 46.378906 -0.0546875 47.15625 0.257812 47.15625 0 Z M 16.234375 0 "/></g></g></g><g fill="#000000" fill-opacity="1"><g transform="translate(324.450476, 169.721514)"><g/></g></g><g fill="#000000" fill-opacity="1"><g transform="translate(373.927757, 169.721514)"><g/></g></g><g fill="#000000" fill-opacity="1"><g transform="translate(423.405038, 169.721514)"><g/></g></g><g fill="#000000" fill-opacity="1"><g transform="translate(472.966434, 169.721514)"><g><path d="M 51.609375 2.3125 C 44.910156 2.3125 38.46875 1.378906 32.28125 -0.484375 C 26.09375 -2.347656 20.550781 -4.957031 15.65625 -8.3125 L 15.65625 -31.703125 C 19.007812 -23.066406 24.128906 -16.523438 31.015625 -12.078125 C 37.910156 -7.628906 45.097656 -5.40625 52.578125 -5.40625 C 60.046875 -5.40625 66.289062 -7.882812 71.3125 -12.84375 C 76.34375 -17.8125 78.859375 -23.96875 78.859375 -31.3125 C 78.859375 -36.207031 77.859375 -40.394531 75.859375 -43.875 C 73.859375 -47.351562 70.664062 -50.601562 66.28125 -53.625 C 61.90625 -56.65625 55.722656 -60.039062 47.734375 -63.78125 C 36.523438 -68.9375 28.375 -74.316406 23.28125 -79.921875 C 18.195312 -85.523438 15.65625 -92.320312 15.65625 -100.3125 C 15.65625 -107.144531 17.296875 -113.234375 20.578125 -118.578125 C 23.867188 -123.921875 28.316406 -128.039062 33.921875 -130.9375 C 39.523438 -133.84375 45.675781 -135.296875 52.375 -135.296875 C 58.175781 -135.296875 63.847656 -134.488281 69.390625 -132.875 C 74.929688 -131.269531 80.082031 -128.984375 84.84375 -126.015625 L 84.84375 -105.140625 C 81.757812 -112.234375 77.09375 -117.742188 70.84375 -121.671875 C 64.59375 -125.597656 58.242188 -127.5625 51.796875 -127.5625 C 44.453125 -127.5625 38.523438 -125.175781 34.015625 -120.40625 C 29.503906 -115.644531 27.25 -109.976562 27.25 -103.40625 C 27.25 -98.632812 28.601562 -94.539062 31.3125 -91.125 C 34.019531 -87.71875 37.335938 -84.851562 41.265625 -82.53125 C 45.191406 -80.207031 50.703125 -77.375 57.796875 -74.03125 C 65.003906 -70.550781 70.925781 -67.328125 75.5625 -64.359375 C 80.207031 -61.398438 84.078125 -57.535156 87.171875 -52.765625 C 90.265625 -47.992188 91.8125 -42.195312 91.8125 -35.375 C 91.8125 -27.644531 89.972656 -20.941406 86.296875 -15.265625 C 82.628906 -9.597656 77.734375 -5.25 71.609375 -2.21875 C 65.492188 0.800781 58.828125 2.3125 51.609375 2.3125 Z M 51.609375 2.3125 "/></g></g></g><g fill="#000000" fill-opacity="1"><g transform="translate(575.013326, 169.721514)"><g/></g></g><g fill="#000000" fill-opacity="1"><g transform="translate(624.490607, 169.721514)"><g><path d="M 40.78125 -51.609375 L 28.40625 -20.875 C 26.476562 -16.101562 25.515625 -12.171875 25.515625 -9.078125 C 25.515625 -4.828125 27.445312 -1.800781 31.3125 0 L 3.671875 0 C 4.960938 0 6.832031 -1.285156 9.28125 -3.859375 C 11.726562 -6.441406 14.5625 -11.535156 17.78125 -19.140625 L 68.234375 -139.15625 L 118.28125 -18.5625 C 121.125 -11.601562 123.863281 -6.832031 126.5 -4.25 C 129.144531 -1.675781 131.238281 -0.257812 132.78125 0 L 100.703125 0 C 103.921875 -1.539062 105.53125 -3.925781 105.53125 -7.15625 C 105.53125 -9.851562 104.5 -13.71875 102.4375 -18.75 L 88.90625 -51.609375 Z M 85.8125 -59.53125 L 64.75 -111.140625 L 44.0625 -59.53125 Z M 85.8125 -59.53125 "/></g></g></g><g fill="#000000" fill-opacity="1"><g transform="translate(757.460802, 169.721514)"><g><path d="M 55.28125 -66.875 C 61.207031 -66.875 66.359375 -68.257812 70.734375 -71.03125 C 75.117188 -73.800781 78.4375 -77.40625 80.6875 -81.84375 C 82.945312 -86.289062 84.078125 -90.96875 84.078125 -95.875 C 84.078125 -100.894531 83.015625 -105.625 80.890625 -110.0625 C 78.765625 -114.507812 75.507812 -118.148438 71.125 -120.984375 C 66.75 -123.828125 61.398438 -125.25 55.078125 -125.25 L 38.65625 -125.25 L 38.65625 -17.78125 C 38.65625 -12.625 39.296875 -8.722656 40.578125 -6.078125 C 41.867188 -3.441406 43.285156 -1.703125 44.828125 -0.859375 C 46.378906 -0.0234375 47.15625 0.257812 47.15625 0 L 16.421875 0 C 16.421875 0.257812 17.191406 -0.0546875 18.734375 -0.953125 C 20.285156 -1.859375 21.671875 -3.597656 22.890625 -6.171875 C 24.117188 -8.753906 24.734375 -12.625 24.734375 -17.78125 L 24.734375 -114.421875 C 24.734375 -119.703125 24.117188 -123.726562 22.890625 -126.5 C 21.671875 -129.269531 20.285156 -131.140625 18.734375 -132.109375 C 17.191406 -133.078125 16.421875 -133.367188 16.421875 -132.984375 L 54.703125 -132.984375 C 64.753906 -132.984375 73.03125 -131.335938 79.53125 -128.046875 C 86.039062 -124.765625 90.742188 -120.515625 93.640625 -115.296875 C 96.546875 -110.078125 98 -104.375 98 -98.1875 C 98 -93.03125 96.773438 -87.972656 94.328125 -83.015625 C 91.878906 -78.054688 88.363281 -73.738281 83.78125 -70.0625 C 79.207031 -66.394531 73.894531 -63.851562 67.84375 -62.4375 L 64.75 -61.84375 L 98.765625 -18.5625 C 103.273438 -13.53125 107.007812 -9.660156 109.96875 -6.953125 C 112.9375 -4.253906 115.097656 -2.453125 116.453125 -1.546875 C 117.804688 -0.640625 118.613281 -0.125 118.875 0 L 96.25 0 L 43.6875 -66.875 Z M 55.28125 -66.875 "/></g></g></g><g fill="#000000" fill-opacity="1"><g transform="translate(874.196137, 169.721514)"><g><path d="M 28.609375 -125.25 C 22.929688 -125.25 18.222656 -124.148438 14.484375 -121.953125 C 10.753906 -119.765625 8.050781 -117 6.375 -113.65625 L 9.078125 -132.984375 L 100.703125 -132.984375 L 103.40625 -113.65625 C 101.726562 -117 99.019531 -119.765625 95.28125 -121.953125 C 91.550781 -124.148438 86.847656 -125.25 81.171875 -125.25 L 61.84375 -125.25 L 61.84375 -17.96875 C 61.84375 -12.820312 62.488281 -8.894531 63.78125 -6.1875 C 65.070312 -3.476562 66.488281 -1.671875 68.03125 -0.765625 C 69.582031 0.128906 70.359375 0.382812 70.359375 0 L 39.625 0 C 39.625 0.382812 40.394531 0.128906 41.9375 -0.765625 C 43.488281 -1.671875 44.875 -3.441406 46.09375 -6.078125 C 47.320312 -8.722656 47.9375 -12.6875 47.9375 -17.96875 L 47.9375 -125.25 Z M 28.609375 -125.25 "/></g></g></g><g fill="#000000" fill-opacity="1"><g transform="translate(980.881576, 169.721514)"><g><path d="M 128.34375 0 C 129.882812 -0.257812 131.554688 -1.644531 133.359375 -4.15625 C 135.160156 -6.664062 136.0625 -11.335938 136.0625 -18.171875 L 136.0625 -114.8125 L 85.4375 2.125 L 34.015625 -114.609375 L 34.015625 -19.140625 C 34.015625 -12.179688 35.140625 -7.316406 37.390625 -4.546875 C 39.648438 -1.773438 41.679688 -0.257812 43.484375 0 L 14.875 0 C 16.8125 -0.257812 18.9375 -1.707031 21.25 -4.34375 C 23.570312 -6.988281 24.734375 -11.921875 24.734375 -19.140625 L 24.734375 -115.96875 C 24.734375 -122.15625 23.640625 -126.40625 21.453125 -128.71875 C 19.265625 -131.039062 17.070312 -132.460938 14.875 -132.984375 L 40.96875 -132.984375 L 88.328125 -24.9375 L 134.90625 -132.984375 L 158.296875 -132.984375 C 156.617188 -132.722656 154.8125 -131.367188 152.875 -128.921875 C 150.945312 -126.472656 149.984375 -121.960938 149.984375 -115.390625 L 149.984375 -17.390625 C 149.984375 -10.953125 150.945312 -6.507812 152.875 -4.0625 C 154.8125 -1.613281 156.617188 -0.257812 158.296875 0 Z M 128.34375 0 "/></g></g></g><g fill="#000000" fill-opacity="1"><g transform="translate(1152.50595, 169.721514)"><g><path d="M 40.78125 -51.609375 L 28.40625 -20.875 C 26.476562 -16.101562 25.515625 -12.171875 25.515625 -9.078125 C 25.515625 -4.828125 27.445312 -1.800781 31.3125 0 L 3.671875 0 C 4.960938 0 6.832031 -1.285156 9.28125 -3.859375 C 11.726562 -6.441406 14.5625 -11.535156 17.78125 -19.140625 L 68.234375 -139.15625 L 118.28125 -18.5625 C 121.125 -11.601562 123.863281 -6.832031 126.5 -4.25 C 129.144531 -1.675781 131.238281 -0.257812 132.78125 0 L 100.703125 0 C 103.921875 -1.539062 105.53125 -3.925781 105.53125 -7.15625 C 105.53125 -9.851562 104.5 -13.71875 102.4375 -18.75 L 88.90625 -51.609375 Z M 85.8125 -59.53125 L 64.75 -111.140625 L 44.0625 -59.53125 Z M 85.8125 -59.53125 "/></g></g></g><g fill="#000000" fill-opacity="1"><g transform="translate(1285.476145, 169.721514)"><g><path d="M 99.34375 0 L 38.65625 -67.640625 L 38.65625 -17.78125 C 38.65625 -11.34375 39.554688 -6.832031 41.359375 -4.25 C 43.160156 -1.675781 44.835938 -0.257812 46.390625 0 L 16.625 0 C 18.164062 -0.257812 19.898438 -1.644531 21.828125 -4.15625 C 23.765625 -6.664062 24.734375 -11.207031 24.734375 -17.78125 L 24.734375 -115 C 24.734375 -121.570312 23.832031 -126.082031 22.03125 -128.53125 C 20.226562 -130.976562 18.425781 -132.460938 16.625 -132.984375 L 46.390625 -132.984375 C 44.835938 -132.722656 43.160156 -131.332031 41.359375 -128.8125 C 39.554688 -126.300781 38.65625 -121.695312 38.65625 -115 L 38.65625 -68.234375 L 84.46875 -113.84375 C 91.8125 -121.1875 95.484375 -126.210938 95.484375 -128.921875 C 95.484375 -131.234375 94.582031 -132.585938 92.78125 -132.984375 L 123.125 -132.984375 C 121.0625 -132.722656 117.804688 -131.332031 113.359375 -128.8125 C 108.910156 -126.300781 103.207031 -121.566406 96.25 -114.609375 L 52.953125 -71.703125 L 101.859375 -18.5625 C 107.785156 -11.726562 112.457031 -7.050781 115.875 -4.53125 C 119.289062 -2.019531 121.707031 -0.507812 123.125 0 Z M 99.34375 0 "/></g></g></g><g fill="#000000" fill-opacity="1"><g transform="translate(1413.807896, 169.721514)"><g><path d="M 16.421875 0 C 16.421875 0.382812 17.191406 0.0976562 18.734375 -0.859375 C 20.285156 -1.828125 21.671875 -3.757812 22.890625 -6.65625 C 24.117188 -9.5625 24.734375 -13.785156 24.734375 -19.328125 L 24.734375 -114.234375 C 24.734375 -119.515625 24.117188 -123.539062 22.890625 -126.3125 C 21.671875 -129.082031 20.285156 -130.984375 18.734375 -132.015625 C 17.191406 -133.046875 16.421875 -133.367188 16.421875 -132.984375 L 86.390625 -132.984375 L 86.390625 -113.65625 C 84.078125 -121.382812 77.117188 -125.25 65.515625 -125.25 L 38.65625 -125.25 L 38.65625 -70.359375 L 71.90625 -70.359375 C 74.476562 -70.359375 76.664062 -70.773438 78.46875 -71.609375 C 80.269531 -72.441406 81.625 -73.3125 82.53125 -74.21875 C 83.4375 -75.125 83.953125 -75.703125 84.078125 -75.953125 L 84.078125 -57.21875 C 83.953125 -57.46875 83.4375 -58.039062 82.53125 -58.9375 C 81.625 -59.84375 80.300781 -60.679688 78.5625 -61.453125 C 76.820312 -62.234375 74.664062 -62.625 72.09375 -62.625 L 38.65625 -62.625 L 38.65625 -7.734375 L 68.8125 -7.734375 C 74.601562 -7.734375 79.59375 -8.921875 83.78125 -11.296875 C 87.96875 -13.679688 90.96875 -16.742188 92.78125 -20.484375 L 89.296875 0 Z M 16.421875 0 "/></g></g></g></g></g></svg>