<svg xmlns="http://www.w3.org/2000/svg" xmlns:xlink="http://www.w3.org/1999/xlink" width="2400" zoomAndPan="magnify" viewBox="0 0 1800 449.999984" height="600" preserveAspectRatio="xMidYMid meet" version="1.2"><defs><clipPath id="db7369db5e"><path d="M 864 71 L 867 71 L 867 73 L 864 73 Z M 864 71 "/></clipPath><clipPath id="9c4036ebe8"><path d="M 864.921875 71.652344 L 866.398438 71.683594 L 866.371094 72.90625 L 864.894531 72.871094 Z M 864.921875 71.652344 "/></clipPath><clipPath id="c8d749d10f"><path d="M 866.382812 72.132812 C 865.683594 73.089844 865.089844 72.929688 864.941406 72.699219 C 864.875 72.472656 864.960938 71.875 865.191406 71.730469 C 865.34375 71.582031 866.164062 71.828125 866.164062 71.828125 "/></clipPath><clipPath id="03961eca56"><path d="M 0.71875 0.519531 L 2.398438 0.519531 L 2.398438 1.960938 L 0.71875 1.960938 Z M 0.71875 0.519531 "/></clipPath><clipPath id="d023d454bd"><path d="M 0.921875 0.652344 L 2.398438 0.683594 L 2.371094 1.90625 L 0.894531 1.871094 Z M 0.921875 0.652344 "/></clipPath><clipPath id="559fbe02d8"><path d="M 2.382812 1.132812 C 1.683594 2.089844 1.089844 1.929688 0.941406 1.699219 C 0.875 1.472656 0.960938 0.875 1.191406 0.730469 C 1.34375 0.582031 2.164062 0.828125 2.164062 0.828125 "/></clipPath><clipPath id="15e7ea4ef9"><rect x="0" width="3" y="0" height="2"/></clipPath><clipPath id="520c0884d6"><path d="M 494 142 L 496 142 L 496 144 L 494 144 Z M 494 142 "/></clipPath><clipPath id="238b2f3a74"><path d="M 494.074219 142.632812 L 495.523438 142.664062 L 495.496094 143.886719 L 494.046875 143.855469 Z M 494.074219 142.632812 "/></clipPath><clipPath id="56d43bf2b8"><path d="M 495.488281 143.113281 C 494.867188 144.074219 494.269531 143.910156 494.125 143.683594 C 493.980469 143.453125 494.144531 142.859375 494.296875 142.710938 C 494.527344 142.566406 495.269531 142.808594 495.269531 142.808594 "/></clipPath><clipPath id="be0f2c12e3"><path d="M 0 0.558594 L 1.601562 0.558594 L 1.601562 2 L 0 2 Z M 0 0.558594 "/></clipPath><clipPath id="80e5e2b852"><path d="M 0.0742188 0.632812 L 1.523438 0.664062 L 1.496094 1.886719 L 0.046875 1.855469 Z M 0.0742188 0.632812 "/></clipPath><clipPath id="01b079d1c8"><path d="M 1.488281 1.113281 C 0.867188 2.074219 0.269531 1.910156 0.125 1.683594 C -0.0195312 1.453125 0.144531 0.859375 0.296875 0.710938 C 0.527344 0.566406 1.269531 0.808594 1.269531 0.808594 "/></clipPath><clipPath id="5e04fe1346"><rect x="0" width="2" y="0" height="2"/></clipPath><clipPath id="dcb6fd97c0"><rect x="0" width="1331" y="0" height="450"/></clipPath><clipPath id="4776466b41"><path d="M 0 393 L 999 393 L 999 450 L 0 450 Z M 0 393 "/></clipPath><clipPath id="0afd04a99a"><path d="M -218.328125 435.136719 L 998.257812 392.777344 L 1001.476562 485.203125 L -215.109375 527.566406 Z M -218.328125 435.136719 "/></clipPath><clipPath id="6ff0ae2e22"><path d="M -210.480469 523.074219 C -124.246094 509.378906 -72.210938 499.027344 -35.507812 492.792969 C -5.84375 487.785156 10.835938 484.855469 45.71875 479.859375 C 106.203125 471.167969 223.722656 456.316406 297.261719 447.695312 C 353.902344 441.027344 389.941406 437.035156 448.851562 431.332031 C 530.25 423.410156 675.824219 410.976562 740.539062 405.984375 C 772.527344 403.566406 783.316406 402.734375 812.722656 401.1875 C 859.253906 398.71875 975.960938 392.699219 992.792969 394.070312 C 995.972656 394.351562 997.289062 394.695312 997.867188 395.261719 C 998.441406 395.699219 997.914062 396.566406 996.808594 396.929688 C 995.703125 397.359375 992.359375 397.738281 990.863281 397.59375 C 989.367188 397.515625 988.039062 396.84375 987.839844 396.394531 C 987.632812 395.816406 989.269531 394.648438 990.75 394.335938 C 992.042969 394.03125 994.28125 394.019531 995.59375 394.234375 C 996.722656 394.457031 998.050781 395.125 998.066406 395.648438 C 998.085938 396.167969 997.367188 396.976562 994.589844 397.527344 C 981.082031 400.542969 877.609375 401.078125 835.539062 403.066406 C 807.800781 404.359375 793.101562 405.261719 766.6875 407.160156 C 730.972656 409.640625 688.765625 413.132812 640.984375 417.207031 C 577.585938 422.609375 482.027344 430.894531 419.40625 437.179688 C 373.140625 441.855469 345.09375 445.050781 299.410156 450.421875 C 237.941406 457.714844 142.132812 469.460938 84.976562 477.449219 C 46.011719 482.976562 16.164062 487.929688 -11.648438 492.550781 C -33.335938 496.171875 -49.832031 499.03125 -68.726562 502.621094 C -88.367188 506.304688 -108.898438 511.0625 -127.425781 514.445312 C -143.546875 517.417969 -159.125 519.917969 -173.589844 522.117188 C -186.207031 523.992188 -203.257812 526.929688 -209.222656 527.007812 C -211.085938 527.074219 -212.023438 526.910156 -212.964844 526.617188 C -213.90625 526.390625 -214.671875 525.828125 -214.871094 525.445312 C -214.886719 524.988281 -214.535156 524.390625 -213.804688 523.972656 C -213.070312 523.621094 -210.480469 523.074219 -210.480469 523.074219 "/></clipPath><clipPath id="737183e126"><path d="M 0 0 L 998.640625 0 L 998.640625 57 L 0 57 Z M 0 0 "/></clipPath><clipPath id="c3ffa596ca"><path d="M -218.328125 42.136719 L 998.257812 -0.222656 L 1001.476562 92.203125 L -215.109375 134.566406 Z M -218.328125 42.136719 "/></clipPath><clipPath id="c0b259c310"><path d="M -210.480469 130.074219 C -124.246094 116.378906 -72.210938 106.027344 -35.507812 99.792969 C -5.84375 94.785156 10.835938 91.855469 45.71875 86.859375 C 106.203125 78.167969 223.722656 63.316406 297.261719 54.695312 C 353.902344 48.027344 389.941406 44.035156 448.851562 38.332031 C 530.25 30.410156 675.824219 17.976562 740.539062 12.984375 C 772.527344 10.566406 783.316406 9.734375 812.722656 8.1875 C 859.253906 5.71875 975.960938 -0.300781 992.792969 1.070312 C 995.972656 1.351562 997.289062 1.695312 997.867188 2.261719 C 998.441406 2.699219 997.914062 3.566406 996.808594 3.929688 C 995.703125 4.359375 992.359375 4.738281 990.863281 4.59375 C 989.367188 4.515625 988.039062 3.84375 987.839844 3.394531 C 987.632812 2.816406 989.269531 1.648438 990.75 1.335938 C 992.042969 1.03125 994.28125 1.019531 995.59375 1.234375 C 996.722656 1.457031 998.050781 2.125 998.066406 2.648438 C 998.085938 3.167969 997.367188 3.976562 994.589844 4.527344 C 981.082031 7.542969 877.609375 8.078125 835.539062 10.066406 C 807.800781 11.359375 793.101562 12.261719 766.6875 14.160156 C 730.972656 16.640625 688.765625 20.132812 640.984375 24.207031 C 577.585938 29.609375 482.027344 37.894531 419.40625 44.179688 C 373.140625 48.855469 345.09375 52.050781 299.410156 57.421875 C 237.941406 64.714844 142.132812 76.460938 84.976562 84.449219 C 46.011719 89.976562 16.164062 94.929688 -11.648438 99.550781 C -33.335938 103.171875 -49.832031 106.03125 -68.726562 109.621094 C -88.367188 113.304688 -108.898438 118.0625 -127.425781 121.445312 C -143.546875 124.417969 -159.125 126.917969 -173.589844 129.117188 C -186.207031 130.992188 -203.257812 133.929688 -209.222656 134.007812 C -211.085938 134.074219 -212.023438 133.910156 -212.964844 133.617188 C -213.90625 133.390625 -214.671875 132.828125 -214.871094 132.445312 C -214.886719 131.988281 -214.535156 131.390625 -213.804688 130.972656 C -213.070312 130.621094 -210.480469 130.074219 -210.480469 130.074219 "/></clipPath><clipPath id="9f1ef1ca47"><rect x="0" width="999" y="0" height="57"/></clipPath><clipPath id="4c3ade72ba"><path d="M 995 390 L 1205 390 L 1205 409 L 995 409 Z M 995 390 "/></clipPath><clipPath id="1ff4b2c32e"><path d="M 996.210938 384.488281 L 1205.402344 397.164062 L 1204.605469 410.316406 L 995.414062 397.640625 Z M 996.210938 384.488281 "/></clipPath><clipPath id="01c2c52768"><path d="M 997.375 393.964844 C 1030.558594 394.945312 1050.21875 392.195312 1062.199219 391.523438 C 1070.6875 391.007812 1074.511719 390.695312 1083.863281 390.835938 C 1101.28125 390.980469 1142.144531 393.035156 1158.375 394.683594 C 1166.269531 395.464844 1169.972656 396.117188 1176.035156 397.269531 C 1182.410156 398.566406 1190.488281 400.511719 1195.683594 402.160156 C 1199.226562 403.347656 1203.292969 404.382812 1204.382812 405.601562 C 1204.800781 406.171875 1204.890625 406.785156 1204.667969 407.253906 C 1204.441406 407.789062 1203.371094 408.449219 1202.847656 408.539062 C 1202.394531 408.574219 1201.957031 408.363281 1201.710938 408.105469 C 1201.34375 407.78125 1201.003906 407.03125 1200.96875 406.546875 C 1200.988281 406.183594 1201.144531 405.769531 1201.480469 405.546875 C 1201.824219 405.203125 1202.617188 404.886719 1203.128906 404.976562 C 1203.644531 405.007812 1204.320312 405.535156 1204.554688 405.914062 C 1204.792969 406.292969 1204.832031 406.71875 1204.742188 407.078125 C 1204.589844 407.492188 1204.035156 408.125 1203.632812 408.34375 C 1203.296875 408.566406 1202.976562 408.546875 1202.402344 408.453125 C 1200.738281 408.230469 1196.546875 406.035156 1192.871094 404.902344 C 1187.925781 403.390625 1181.058594 401.699219 1175.449219 400.511719 C 1170.414062 399.476562 1165.625 398.640625 1160.753906 398.042969 C 1156.078125 397.457031 1153.179688 397.339844 1146.945312 396.902344 C 1133.507812 396.027344 1098.339844 393.777344 1083.953125 393.632812 C 1076.472656 393.542969 1074.132812 393.765625 1066.945312 394.179688 C 1054.378906 394.871094 1027.988281 397.941406 1015.136719 398.074219 C 1007.453125 398.09375 999.171875 398.378906 996.804688 397.023438 C 995.929688 396.546875 995.527344 395.734375 995.621094 395.191406 C 995.714844 394.714844 997.375 393.964844 997.375 393.964844 "/></clipPath><clipPath id="f7d06bc8dc"><path d="M 0.519531 0.480469 L 210 0.480469 L 210 18.71875 L 0.519531 18.71875 Z M 0.519531 0.480469 "/></clipPath><clipPath id="5128abf540"><path d="M 1.210938 -5.511719 L 210.402344 7.164062 L 209.605469 20.316406 L 0.414062 7.640625 Z M 1.210938 -5.511719 "/></clipPath><clipPath id="d4ca9eeabe"><path d="M 2.375 3.964844 C 35.558594 4.945312 55.21875 2.195312 67.199219 1.523438 C 75.6875 1.007812 79.511719 0.695312 88.863281 0.835938 C 106.28125 0.980469 147.144531 3.035156 163.375 4.683594 C 171.269531 5.464844 174.972656 6.117188 181.035156 7.269531 C 187.410156 8.566406 195.488281 10.511719 200.683594 12.160156 C 204.226562 13.347656 208.292969 14.382812 209.382812 15.601562 C 209.800781 16.171875 209.890625 16.785156 209.667969 17.253906 C 209.441406 17.789062 208.371094 18.449219 207.847656 18.539062 C 207.394531 18.574219 206.957031 18.363281 206.710938 18.105469 C 206.34375 17.78125 206.003906 17.03125 205.96875 16.546875 C 205.988281 16.183594 206.144531 15.769531 206.480469 15.546875 C 206.824219 15.203125 207.617188 14.886719 208.128906 14.976562 C 208.644531 15.007812 209.320312 15.535156 209.554688 15.914062 C 209.792969 16.292969 209.832031 16.71875 209.742188 17.078125 C 209.589844 17.492188 209.035156 18.125 208.632812 18.34375 C 208.296875 18.566406 207.976562 18.546875 207.402344 18.453125 C 205.738281 18.230469 201.546875 16.035156 197.871094 14.902344 C 192.925781 13.390625 186.058594 11.699219 180.449219 10.511719 C 175.414062 9.476562 170.625 8.640625 165.753906 8.042969 C 161.078125 7.457031 158.179688 7.339844 151.945312 6.902344 C 138.507812 6.027344 103.339844 3.777344 88.953125 3.632812 C 81.472656 3.542969 79.132812 3.765625 71.945312 4.179688 C 59.378906 4.871094 32.988281 7.941406 20.136719 8.074219 C 12.453125 8.09375 4.171875 8.378906 1.804688 7.023438 C 0.929688 6.546875 0.527344 5.734375 0.621094 5.191406 C 0.714844 4.714844 2.375 3.964844 2.375 3.964844 "/></clipPath><clipPath id="1c80276289"><rect x="0" width="210" y="0" height="19"/></clipPath><clipPath id="a5f88a6d68"><path d="M 1189 406 L 1520 406 L 1520 442 L 1189 442 Z M 1189 406 "/></clipPath><clipPath id="28c8369430"><path d="M 1191.515625 393.925781 L 1519.789062 413.820312 L 1517.183594 456.835938 L 1188.90625 436.941406 Z M 1191.515625 393.925781 "/></clipPath><clipPath id="fb86aa8250"><path d="M 1205.597656 408.285156 C 1204.457031 413.601562 1204.132812 414.003906 1203.417969 414.796875 C 1201.984375 416.320312 1196.976562 419.09375 1195.976562 420.851562 C 1195.394531 421.867188 1195.417969 422.707031 1195.664062 423.5625 C 1195.910156 424.417969 1196.683594 425.164062 1197.535156 425.84375 C 1198.382812 426.59375 1199.542969 427.085938 1200.921875 427.726562 C 1202.796875 428.679688 1205.046875 429.65625 1207.898438 430.527344 C 1212.136719 431.835938 1217.339844 433.199219 1223.90625 434.226562 C 1234.003906 435.886719 1250.078125 437.28125 1262.921875 437.851562 C 1275.476562 438.332031 1287.1875 437.992188 1300.179688 437.378906 C 1314.585938 436.785156 1325.65625 435.917969 1345.652344 433.980469 C 1384.59375 430.253906 1507.535156 412.804688 1517.449219 413.824219 C 1518.410156 413.953125 1518.703125 414.039062 1519.054688 414.339844 C 1519.332031 414.707031 1519.585938 415.421875 1519.40625 415.902344 C 1519.308594 416.316406 1518.828125 416.84375 1518.371094 417.027344 C 1517.914062 417.210938 1517.101562 417.089844 1516.75 416.789062 C 1516.316406 416.554688 1515.984375 415.902344 1516.011719 415.414062 C 1515.964844 414.992188 1516.375 414.320312 1516.765625 414.0625 C 1517.300781 413.816406 1518.410156 413.953125 1518.910156 414.261719 C 1519.269531 414.492188 1519.597656 415.214844 1519.496094 415.695312 C 1519.390625 416.179688 1519.070312 416.582031 1517.996094 417.074219 C 1508.191406 421.585938 1384.992188 433.496094 1345.898438 437.285156 C 1325.828125 439.214844 1314.757812 440.082031 1300.273438 440.742188 C 1287.132812 441.347656 1275.347656 441.683594 1262.644531 441.191406 C 1249.644531 440.753906 1233.5 439.285156 1223.167969 437.820312 C 1216.375 436.847656 1211.441406 435.921875 1206.46875 434.429688 C 1202.226562 433.195312 1197.554688 431.652344 1194.976562 429.957031 C 1193.332031 428.875 1192.367188 427.558594 1191.546875 426.390625 C 1190.863281 425.371094 1190.398438 424.433594 1190.164062 423.367188 C 1189.925781 422.375 1189.851562 421.179688 1190.050781 420.355469 C 1190.320312 419.601562 1190.644531 419.132812 1191.4375 418.339844 C 1192.953125 416.683594 1198.332031 413.929688 1200.03125 411.65625 C 1201.175781 409.976562 1200.660156 407.425781 1201.675781 406.648438 C 1202.308594 406.058594 1203.582031 405.925781 1204.238281 406.175781 C 1204.886719 406.492188 1205.597656 408.285156 1205.597656 408.285156 "/></clipPath><clipPath id="0a3b5a7d46"><path d="M 0.679688 0 L 330.679688 0 L 330.679688 35.839844 L 0.679688 35.839844 Z M 0.679688 0 "/></clipPath><clipPath id="a01b43a0c6"><path d="M 2.515625 -12.074219 L 330.789062 7.820312 L 328.183594 50.835938 L -0.09375 30.941406 Z M 2.515625 -12.074219 "/></clipPath><clipPath id="c90ee48e07"><path d="M 16.597656 2.285156 C 15.457031 7.601562 15.132812 8.003906 14.417969 8.796875 C 12.984375 10.320312 7.976562 13.09375 6.976562 14.851562 C 6.394531 15.867188 6.417969 16.707031 6.664062 17.5625 C 6.910156 18.417969 7.683594 19.164062 8.535156 19.84375 C 9.382812 20.59375 10.542969 21.085938 11.921875 21.726562 C 13.796875 22.679688 16.046875 23.65625 18.898438 24.527344 C 23.136719 25.835938 28.339844 27.199219 34.90625 28.226562 C 45.003906 29.886719 61.078125 31.28125 73.921875 31.851562 C 86.476562 32.332031 98.1875 31.992188 111.179688 31.378906 C 125.585938 30.785156 136.65625 29.917969 156.652344 27.980469 C 195.59375 24.253906 318.535156 6.804688 328.449219 7.824219 C 329.410156 7.953125 329.703125 8.039062 330.054688 8.339844 C 330.332031 8.707031 330.585938 9.421875 330.40625 9.902344 C 330.308594 10.316406 329.828125 10.84375 329.371094 11.027344 C 328.914062 11.210938 328.101562 11.089844 327.75 10.789062 C 327.316406 10.554688 326.984375 9.902344 327.011719 9.414062 C 326.964844 8.992188 327.375 8.320312 327.765625 8.0625 C 328.300781 7.816406 329.410156 7.953125 329.910156 8.261719 C 330.269531 8.492188 330.597656 9.214844 330.496094 9.695312 C 330.390625 10.179688 330.070312 10.582031 328.996094 11.074219 C 319.191406 15.585938 195.992188 27.496094 156.898438 31.285156 C 136.828125 33.214844 125.757812 34.082031 111.273438 34.742188 C 98.132812 35.347656 86.347656 35.683594 73.644531 35.191406 C 60.644531 34.753906 44.5 33.285156 34.167969 31.820312 C 27.375 30.847656 22.441406 29.921875 17.46875 28.429688 C 13.226562 27.195312 8.554688 25.652344 5.976562 23.957031 C 4.332031 22.875 3.367188 21.558594 2.546875 20.390625 C 1.863281 19.371094 1.398438 18.433594 1.164062 17.367188 C 0.925781 16.375 0.851562 15.179688 1.050781 14.355469 C 1.320312 13.601562 1.644531 13.132812 2.4375 12.339844 C 3.953125 10.683594 9.332031 7.929688 11.03125 5.65625 C 12.175781 3.976562 11.660156 1.425781 12.675781 0.648438 C 13.308594 0.0585938 14.582031 -0.0742188 15.238281 0.175781 C 15.886719 0.492188 16.597656 2.285156 16.597656 2.285156 "/></clipPath><clipPath id="543d0fe795"><rect x="0" width="331" y="0" height="36"/></clipPath></defs><g id="bdcf78c534"><g clip-rule="nonzero" clip-path="url(#db7369db5e)"><g clip-rule="nonzero" clip-path="url(#9c4036ebe8)"><g clip-rule="nonzero" clip-path="url(#c8d749d10f)"><g transform="matrix(1,0,0,1,864,71)"><g clip-path="url(#15e7ea4ef9)"><g clip-rule="nonzero" clip-path="url(#03961eca56)"><g clip-rule="nonzero" clip-path="url(#d023d454bd)"><g clip-rule="nonzero" clip-path="url(#559fbe02d8)"><path style=" stroke:none;fill-rule:nonzero;fill:#0571d3;fill-opacity:1;" d="M -1.96875 -2.339844 L 5.449219 -2.175781 L 5.285156 5.097656 L -2.128906 4.933594 Z M -1.96875 -2.339844 "/></g></g></g></g></g></g></g></g><g clip-rule="nonzero" clip-path="url(#520c0884d6)"><g clip-rule="nonzero" clip-path="url(#238b2f3a74)"><g clip-rule="nonzero" clip-path="url(#56d43bf2b8)"><g transform="matrix(1,0,0,1,494,142)"><g clip-path="url(#5e04fe1346)"><g clip-rule="nonzero" clip-path="url(#be0f2c12e3)"><g clip-rule="nonzero" clip-path="url(#80e5e2b852)"><g clip-rule="nonzero" clip-path="url(#01b079d1c8)"><path style=" stroke:none;fill-rule:nonzero;fill:#0571d3;fill-opacity:1;" d="M -2.785156 -2.359375 L 4.628906 -2.195312 L 4.46875 5.078125 L -2.945312 4.914062 Z M -2.785156 -2.359375 "/></g></g></g></g></g></g></g></g><g transform="matrix(1,0,0,1,289,0)"><g clip-path="url(#dcb6fd97c0)"><g style="fill:#5a9a9c;fill-opacity:1;"><g transform="translate(47.795584, 376.277751)"><path style="stroke:none" d="M -17.4375 0.59375 C -21.59375 0.738281 -23.332031 -1.488281 -22.65625 -6.09375 C -22.3125 -8.175781 -19.867188 -12.726562 -15.328125 -19.75 C -10.796875 -26.769531 -4.945312 -34.867188 2.21875 -44.046875 C 9.394531 -53.234375 17.285156 -62.648438 25.890625 -72.296875 C 34.503906 -81.941406 43.273438 -90.242188 52.203125 -97.203125 C 52.585938 -97.640625 53.40625 -97.878906 54.65625 -97.921875 C 56.738281 -97.992188 57.816406 -96.988281 57.890625 -94.90625 C 57.929688 -93.675781 57.550781 -92.628906 56.75 -91.765625 C 44.59375 -82.191406 32.726562 -70.347656 21.15625 -56.234375 C 9.582031 -42.117188 0.425781 -30.164062 -6.3125 -20.375 C -6.695312 -19.519531 -6.769531 -18.679688 -6.53125 -17.859375 C -6.300781 -17.035156 -5.367188 -17.066406 -3.734375 -17.953125 C 43.242188 -54.484375 74.210938 -73.003906 89.171875 -73.515625 C 95.816406 -73.742188 99.238281 -70.957031 99.4375 -65.15625 C 99.539062 -62.238281 99.148438 -58.476562 98.265625 -53.875 C 97.378906 -49.269531 96.597656 -44.675781 95.921875 -40.09375 C 93.691406 -32.101562 92.648438 -26.03125 92.796875 -21.875 C 92.910156 -18.550781 95.253906 -16.96875 99.828125 -17.125 C 110.210938 -17.476562 124 -21.585938 141.1875 -29.453125 C 158.382812 -37.328125 176.117188 -47.8125 194.390625 -60.90625 L 196.234375 -60.96875 C 198.734375 -61.050781 200.019531 -60.050781 200.09375 -57.96875 C 200.132812 -56.726562 199.546875 -55.671875 198.328125 -54.796875 C 179.648438 -41.691406 161.40625 -31.09375 143.59375 -23 C 125.789062 -14.90625 111.28125 -10.664062 100.0625 -10.28125 C 90.507812 -9.957031 85.597656 -13.738281 85.328125 -21.625 C 85.253906 -23.695312 85.570312 -26.507812 86.28125 -30.0625 C 87 -33.625 87.707031 -37.5 88.40625 -41.6875 C 89.488281 -46.289062 90.472656 -50.6875 91.359375 -54.875 C 92.253906 -59.070312 92.675781 -62.003906 92.625 -63.671875 C 92.550781 -65.742188 91.476562 -66.742188 89.40625 -66.671875 C 82.757812 -66.441406 73.726562 -62.90625 62.3125 -56.0625 C 50.90625 -49.226562 39.328125 -41.347656 27.578125 -32.421875 C 15.828125 -23.503906 5.894531 -16 -2.21875 -9.90625 C -5.875 -7.289062 -9.007812 -4.894531 -11.625 -2.71875 C -14.25 -0.550781 -16.1875 0.550781 -17.4375 0.59375 Z M -17.4375 0.59375 "/></g></g><g style="fill:#5a9a9c;fill-opacity:1;"><g transform="translate(231.574365, 369.995513)"><path style="stroke:none" d="M -3.5625 5.109375 C -11.445312 5.378906 -15.550781 0.738281 -15.875 -8.8125 C -16.175781 -17.53125 -12.851562 -26.6875 -5.90625 -36.28125 C 1.039062 -45.875 9.796875 -54.179688 20.359375 -61.203125 C 20.335938 -61.617188 20.429688 -61.828125 20.640625 -61.828125 C 20.847656 -61.835938 20.945312 -62.050781 20.9375 -62.46875 C 22.488281 -65.84375 24.523438 -67.160156 27.046875 -66.421875 C 27.890625 -66.035156 28.722656 -66.0625 29.546875 -66.5 C 32.398438 -68.25 35.265625 -69.382812 38.140625 -69.90625 C 38.128906 -70.320312 38.539062 -70.539062 39.375 -70.5625 C 41.445312 -70.632812 42.523438 -69.429688 42.609375 -66.953125 C 42.679688 -64.867188 41.890625 -63.800781 40.234375 -63.75 C 39.828125 -63.320312 39.414062 -63.101562 39 -63.09375 C 38.582031 -63.082031 38.171875 -62.859375 37.765625 -62.421875 C 36.554688 -61.960938 36.582031 -61.335938 37.84375 -60.546875 C 55.21875 -51.148438 73.785156 -46.269531 93.546875 -45.90625 C 113.304688 -45.539062 130.507812 -49.984375 145.15625 -59.234375 L 147.03125 -59.296875 C 149.519531 -59.378906 150.800781 -58.378906 150.875 -56.296875 C 150.914062 -55.054688 150.117188 -53.988281 148.484375 -53.09375 C 132.609375 -43.40625 113.851562 -38.710938 92.21875 -39.015625 C 70.59375 -39.328125 50.445312 -44.773438 31.78125 -55.359375 C 30.5 -56.546875 29.894531 -56.101562 29.96875 -54.03125 C 31.476562 -46.1875 30.726562 -37.640625 27.71875 -28.390625 C 24.707031 -19.140625 20.398438 -11.300781 14.796875 -4.875 C 9.203125 1.550781 3.082031 4.878906 -3.5625 5.109375 Z M -3.796875 -1.75 C 1.179688 -1.914062 5.957031 -4.988281 10.53125 -10.96875 C 15.113281 -16.945312 18.71875 -24.035156 21.34375 -32.234375 C 23.976562 -40.429688 24.5625 -47.832031 23.09375 -54.4375 C 13.738281 -48.28125 5.984375 -40.941406 -0.171875 -32.421875 C -6.335938 -23.898438 -9.296875 -16.109375 -9.046875 -9.046875 C -8.878906 -4.066406 -7.128906 -1.632812 -3.796875 -1.75 Z M -3.796875 -1.75 "/></g></g><g style="fill:#5a9a9c;fill-opacity:1;"><g transform="translate(366.137751, 365.39564)"><path style="stroke:none" d="M 62.9375 -1.53125 C 47.976562 -1.019531 40.285156 -6.992188 39.859375 -19.453125 C 39.679688 -24.859375 43.910156 -35.191406 52.546875 -50.453125 C 53.335938 -51.710938 53.515625 -52.546875 53.078125 -52.953125 C 52.648438 -53.359375 51.828125 -53.117188 50.609375 -52.234375 C 34.921875 -36.734375 21.625 -24.222656 10.71875 -14.703125 C -0.175781 -5.191406 -8.320312 -0.34375 -13.71875 -0.15625 C -19.113281 0.03125 -21.910156 -2.78125 -22.109375 -8.59375 C -22.378906 -16.476562 -18.617188 -25.128906 -10.828125 -34.546875 C -3.046875 -43.960938 6.332031 -52.285156 17.3125 -59.515625 C 28.289062 -66.753906 38.347656 -70.53125 47.484375 -70.84375 C 52.046875 -71 55.394531 -70.285156 57.53125 -68.703125 C 60.34375 -71.703125 63.15625 -74.5 65.96875 -77.09375 C 68.789062 -79.6875 71.609375 -82.488281 74.421875 -85.5 C 86.679688 -103.789062 100.851562 -123.914062 116.9375 -145.875 C 133.03125 -167.84375 149.75 -189.625 167.09375 -211.21875 C 184.445312 -232.8125 200.925781 -252.5 216.53125 -270.28125 C 232.132812 -288.070312 245.675781 -302.363281 257.15625 -313.15625 C 268.644531 -323.945312 276.675781 -329.421875 281.25 -329.578125 C 287.070312 -329.773438 290.078125 -327.171875 290.265625 -321.765625 C 290.378906 -318.441406 286.0625 -310.8125 277.3125 -298.875 C 268.570312 -286.9375 256.695312 -272.289062 241.6875 -254.9375 C 226.6875 -237.582031 209.976562 -218.613281 191.5625 -198.03125 C 173.144531 -177.445312 154.101562 -156.835938 134.4375 -136.203125 C 114.769531 -115.566406 95.878906 -96.414062 77.765625 -78.75 L 66.515625 -60.90625 C 67.847656 -58.457031 68.578125 -55.363281 68.703125 -51.625 C 67.941406 -49.507812 66.734375 -48.425781 65.078125 -48.375 C 62.585938 -48.289062 61.300781 -49.5 61.21875 -52 C 61.207031 -52.40625 61.203125 -52.609375 61.203125 -52.609375 C 56.898438 -44.566406 53.382812 -37.796875 50.65625 -32.296875 C 47.9375 -26.796875 46.625 -22.59375 46.71875 -19.6875 C 46.976562 -12.21875 52.300781 -8.660156 62.6875 -9.015625 C 70.15625 -9.265625 80.46875 -11.585938 93.625 -15.984375 C 106.789062 -20.378906 120.9375 -26.367188 136.0625 -33.953125 C 151.1875 -41.535156 165.429688 -50.34375 178.796875 -60.375 C 179.210938 -60.382812 179.519531 -60.5 179.71875 -60.71875 C 179.925781 -60.9375 180.238281 -61.050781 180.65625 -61.0625 C 183.144531 -61.144531 184.429688 -59.9375 184.515625 -57.4375 C 184.554688 -56.195312 183.972656 -55.140625 182.765625 -54.265625 C 168.960938 -44.234375 154.296875 -35.207031 138.765625 -27.1875 C 123.242188 -19.175781 108.695312 -12.960938 95.125 -8.546875 C 81.550781 -4.128906 70.820312 -1.789062 62.9375 -1.53125 Z M 101.53125 -113.234375 C 122.425781 -134.742188 143.597656 -157.09375 165.046875 -180.28125 C 186.492188 -203.46875 206.125 -225.238281 223.9375 -245.59375 C 241.75 -265.957031 256.132812 -282.976562 267.09375 -296.65625 C 278.0625 -310.332031 283.5 -318.625 283.40625 -321.53125 C 283.375 -322.363281 282.734375 -322.757812 281.484375 -322.71875 C 278.160156 -322.601562 271.863281 -318.226562 262.59375 -309.59375 C 253.332031 -300.957031 242.296875 -289.351562 229.484375 -274.78125 C 216.679688 -260.207031 202.789062 -243.828125 187.8125 -225.640625 C 172.84375 -207.460938 157.894531 -188.660156 142.96875 -169.234375 C 128.039062 -149.804688 114.226562 -131.140625 101.53125 -113.234375 Z M -12.75 -7.6875 C -9.425781 -7.800781 -2.015625 -12.9375 9.484375 -23.09375 C 20.992188 -33.257812 35.195312 -46.742188 52.09375 -63.546875 L 47.734375 -63.390625 C 39.847656 -63.117188 31.023438 -59.800781 21.265625 -53.4375 C 11.503906 -47.070312 3.023438 -39.710938 -4.171875 -31.359375 C -11.378906 -23.003906 -14.878906 -15.710938 -14.671875 -9.484375 C -14.628906 -8.242188 -13.988281 -7.644531 -12.75 -7.6875 Z M -12.75 -7.6875 "/></g></g><g style="fill:#5a9a9c;fill-opacity:1;"><g transform="translate(534.96491, 359.624504)"><path style="stroke:none" d="M 20.625 1.171875 C 11.488281 1.484375 4.265625 0.0664062 -1.046875 -3.078125 C -6.359375 -6.234375 -9.117188 -10.921875 -9.328125 -17.140625 C -9.566406 -24.203125 -6.910156 -31.773438 -1.359375 -39.859375 C 4.191406 -47.953125 10.914062 -55.039062 18.8125 -61.125 C 26.707031 -67.21875 33.976562 -70.378906 40.625 -70.609375 C 48.101562 -70.867188 51.957031 -67.679688 52.1875 -61.046875 C 52.320312 -56.890625 49.648438 -52.84375 44.171875 -48.90625 C 38.703125 -44.976562 33.054688 -42.914062 27.234375 -42.71875 C 20.171875 -42.476562 14.953125 -43.128906 11.578125 -44.671875 C 7.566406 -40.390625 4.289062 -35.8125 1.75 -30.9375 C -0.789062 -26.0625 -1.988281 -21.546875 -1.84375 -17.390625 C -1.570312 -9.503906 5.832031 -5.8125 20.375 -6.3125 C 26.601562 -6.519531 36.296875 -8.71875 49.453125 -12.90625 C 62.609375 -17.101562 77.269531 -23.015625 93.4375 -30.640625 C 109.601562 -38.265625 124.570312 -47.507812 138.34375 -58.375 C 138.738281 -58.800781 139.351562 -59.03125 140.1875 -59.0625 C 142.664062 -59.144531 143.941406 -58.144531 144.015625 -56.0625 C 144.054688 -54.820312 143.476562 -53.765625 142.28125 -52.890625 C 128.101562 -41.597656 112.835938 -31.925781 96.484375 -23.875 C 80.128906 -15.832031 65.054688 -9.703125 51.265625 -5.484375 C 37.484375 -1.273438 27.269531 0.941406 20.625 1.171875 Z M 27 -49.578125 C 30.320312 -49.691406 34.21875 -51.175781 38.6875 -54.03125 C 43.164062 -56.882812 45.378906 -59.144531 45.328125 -60.8125 C 45.265625 -62.476562 43.78125 -63.257812 40.875 -63.15625 C 37.144531 -63.03125 33.238281 -61.753906 29.15625 -59.328125 C 25.082031 -56.898438 21.023438 -53.953125 16.984375 -50.484375 C 18.242188 -50.109375 19.707031 -49.84375 21.375 -49.6875 C 23.050781 -49.539062 24.925781 -49.503906 27 -49.578125 Z M 27 -49.578125 "/></g></g><g style="fill:#5a9a9c;fill-opacity:1;"><g transform="translate(662.67554, 355.258883)"><path style="stroke:none" d="M -16.46875 10.546875 C -19.789062 10.660156 -21.507812 9.054688 -21.625 5.734375 C -21.78125 1.160156 -19.023438 -6.414062 -13.359375 -17 C -7.691406 -27.59375 0.0859375 -40.128906 9.984375 -54.609375 L 10.59375 -55.25 C 21.675781 -71.425781 34.578125 -89.222656 49.296875 -108.640625 C 64.015625 -128.066406 79.550781 -147.832031 95.90625 -167.9375 C 112.269531 -188.039062 128.65625 -207.519531 145.0625 -226.375 C 161.46875 -245.238281 176.691406 -262.078125 190.734375 -276.890625 C 204.785156 -291.710938 217.066406 -303.460938 227.578125 -312.140625 C 238.097656 -320.816406 245.4375 -325.222656 249.59375 -325.359375 C 256.65625 -325.609375 260.304688 -322.203125 260.546875 -315.140625 C 260.765625 -308.921875 256.539062 -298.695312 247.875 -284.46875 C 239.21875 -270.238281 227.007812 -253.390625 211.25 -233.921875 C 195.488281 -214.460938 177.269531 -193.882812 156.59375 -172.1875 C 135.914062 -150.488281 113.460938 -129.140625 89.234375 -108.140625 C 65.015625 -87.140625 40.3125 -67.691406 15.125 -49.796875 C 9.59375 -41.710938 4.660156 -34.054688 0.328125 -26.828125 C -3.992188 -19.609375 -7.523438 -13.460938 -10.265625 -8.390625 C -12.597656 -3.734375 -11.347656 -3.566406 -6.515625 -7.890625 C -5.304688 -9.171875 -1.679688 -12.617188 4.359375 -18.234375 C 10.410156 -23.847656 17.289062 -29.488281 25 -35.15625 C 51.707031 -56.445312 70.253906 -67.269531 80.640625 -67.625 C 87.691406 -67.863281 91.347656 -64.242188 91.609375 -56.765625 C 91.921875 -47.617188 87.882812 -37.921875 79.5 -27.671875 C 95.21875 -30.285156 111.828125 -33.96875 129.328125 -38.71875 C 146.835938 -43.46875 162.707031 -50.664062 176.9375 -60.3125 L 178.796875 -60.375 C 180.878906 -60.445312 181.957031 -59.441406 182.03125 -57.359375 C 182.070312 -56.117188 181.691406 -55.066406 180.890625 -54.203125 C 164.628906 -43.253906 146.597656 -35.363281 126.796875 -30.53125 C 107.003906 -25.695312 88.84375 -21.953125 72.3125 -19.296875 C 66.28125 -13.285156 59.804688 -8.082031 52.890625 -3.6875 C 45.972656 0.707031 39.398438 3.015625 33.171875 3.234375 C 24.453125 3.523438 19.960938 -0.0664062 19.703125 -7.546875 C 19.546875 -12.109375 23.269531 -15.554688 30.875 -17.890625 C 38.488281 -20.234375 49.945312 -22.703125 65.25 -25.296875 L 68.359375 -25.40625 C 73.171875 -30.570312 77.140625 -36.007812 80.265625 -41.71875 C 83.398438 -47.4375 84.898438 -52.375 84.765625 -56.53125 C 84.679688 -59.019531 82.976562 -60.207031 79.65625 -60.09375 C 71.34375 -59.8125 54.429688 -49.671875 28.921875 -29.671875 C 21.628906 -24.023438 14.863281 -18.179688 8.625 -12.140625 C 2.382812 -6.109375 -2.75 -1.148438 -6.78125 2.734375 C -8.789062 4.460938 -10.59375 6.1875 -12.1875 7.90625 C -13.789062 9.625 -15.21875 10.503906 -16.46875 10.546875 Z M 27.625 -67.671875 C 51.5625 -85.128906 74.617188 -104.003906 96.796875 -124.296875 C 118.972656 -144.597656 139.59375 -164.742188 158.65625 -184.734375 C 177.726562 -204.722656 194.441406 -223.585938 208.796875 -241.328125 C 223.160156 -259.078125 234.28125 -274.425781 242.15625 -287.375 C 250.03125 -300.332031 253.875 -309.507812 253.6875 -314.90625 C 253.613281 -316.976562 252.332031 -317.96875 249.84375 -317.875 C 245.6875 -317.738281 237.5625 -312.160156 225.46875 -301.140625 C 213.375 -290.128906 199.007812 -275.503906 182.375 -257.265625 C 165.75 -239.023438 148.140625 -218.984375 129.546875 -197.140625 C 110.960938 -175.304688 92.800781 -153.066406 75.0625 -130.421875 C 57.332031 -107.773438 41.519531 -86.859375 27.625 -67.671875 Z M 32.90625 -4.234375 C 41.625 -4.535156 50.421875 -8.785156 59.296875 -16.984375 C 47.304688 -14.921875 38.945312 -13.082031 34.21875 -11.46875 C 29.488281 -9.851562 27.140625 -8.628906 27.171875 -7.796875 C 27.253906 -5.296875 29.164062 -4.109375 32.90625 -4.234375 Z M 32.90625 -4.234375 "/></g></g><g style="fill:#5a9a9c;fill-opacity:1;"><g transform="translate(829.010849, 349.572928)"><path style="stroke:none" d="M 84.125 -2.25 C 69.175781 -1.738281 61.488281 -7.710938 61.0625 -20.171875 C 60.851562 -26.398438 62.289062 -32.894531 65.375 -39.65625 C 68.46875 -46.414062 71.796875 -52.5625 75.359375 -58.09375 C 76.160156 -58.945312 76.34375 -59.570312 75.90625 -59.96875 C 75.476562 -60.375 74.863281 -60.144531 74.0625 -59.28125 C 71.207031 -57.53125 67.15625 -54.484375 61.90625 -50.140625 C 53.394531 -43.609375 43.96875 -36.523438 33.625 -28.890625 C 23.28125 -21.265625 13.425781 -14.585938 4.0625 -8.859375 C -5.300781 -3.140625 -12.890625 -0.179688 -18.703125 0.015625 C -26.179688 0.265625 -30.035156 -2.929688 -30.265625 -9.578125 C -30.453125 -14.972656 -27.75 -20.988281 -22.15625 -27.625 C -16.5625 -34.269531 -9.5 -40.644531 -0.96875 -46.75 C 7.550781 -52.863281 16.003906 -57.929688 24.390625 -61.953125 C 32.773438 -65.984375 39.664062 -68.09375 45.0625 -68.28125 C 53.375 -68.5625 59.300781 -65.644531 62.84375 -59.53125 C 75.789062 -69.945312 83.507812 -75.195312 86 -75.28125 C 88.894531 -75.382812 90.394531 -73.976562 90.5 -71.0625 C 90.550781 -69.414062 88.410156 -65.191406 84.078125 -58.390625 C 80.515625 -52.859375 76.875 -46.597656 73.15625 -39.609375 C 69.445312 -32.617188 67.691406 -26.21875 67.890625 -20.40625 C 68.148438 -12.9375 73.476562 -9.378906 83.875 -9.734375 C 90.507812 -9.960938 100.191406 -12.367188 112.921875 -16.953125 C 125.660156 -21.546875 139.175781 -27.617188 153.46875 -35.171875 C 167.757812 -42.734375 180.578125 -51.078125 191.921875 -60.203125 C 192.316406 -60.628906 193.140625 -60.863281 194.390625 -60.90625 C 196.453125 -60.976562 197.519531 -59.972656 197.59375 -57.890625 C 197.632812 -56.648438 197.253906 -55.597656 196.453125 -54.734375 C 185.109375 -46.035156 172.085938 -37.691406 157.390625 -29.703125 C 142.703125 -21.722656 128.6875 -15.210938 115.34375 -10.171875 C 102 -5.140625 91.59375 -2.5 84.125 -2.25 Z M -18.96875 -7.46875 C -13.988281 -7.632812 -7.117188 -10.359375 1.640625 -15.640625 C 10.398438 -20.929688 19.742188 -27.28125 29.671875 -34.6875 C 39.609375 -42.09375 48.628906 -49.054688 56.734375 -55.578125 C 54.515625 -59.660156 50.703125 -61.613281 45.296875 -61.4375 C 39.898438 -61.25 33.3125 -59.253906 25.53125 -55.453125 C 17.757812 -51.648438 10.128906 -46.8125 2.640625 -40.9375 C -4.847656 -35.070312 -11.09375 -29.347656 -16.09375 -23.765625 C -21.09375 -18.191406 -23.53125 -13.539062 -23.40625 -9.8125 C -23.351562 -8.15625 -21.875 -7.375 -18.96875 -7.46875 Z M -18.96875 -7.46875 "/></g></g><g style="fill:#5a9a9c;fill-opacity:1;"><g transform="translate(1010.920644, 343.354579)"><path style="stroke:none" d="M -1.484375 29.984375 C -8.546875 30.234375 -12.164062 27.65625 -12.34375 22.25 C -12.488281 18.09375 -8.898438 13.5 -1.578125 8.46875 C 5.734375 3.445312 14.5 -1.523438 24.71875 -6.453125 C 34.945312 -11.390625 44.164062 -15.445312 52.375 -18.625 C 53.207031 -18.65625 53.617188 -18.878906 53.609375 -19.296875 C 54.378906 -20.984375 55.257812 -22.570312 56.25 -24.0625 C 57.238281 -25.550781 57.300781 -26.695312 56.4375 -27.5 C 55.988281 -28.3125 52.96875 -28.3125 47.375 -27.5 C 41.789062 -26.6875 37.769531 -26.03125 35.3125 -25.53125 C 31.582031 -24.988281 27.960938 -24.34375 24.453125 -23.59375 C 20.941406 -22.851562 17.519531 -22.425781 14.1875 -22.3125 C 4.226562 -21.96875 -0.859375 -25.125 -1.078125 -31.78125 C -1.296875 -38 1.796875 -44.753906 8.203125 -52.046875 C 14.609375 -59.335938 22.289062 -65.734375 31.25 -71.234375 C 40.207031 -76.742188 48.425781 -79.625 55.90625 -79.875 C 63.375 -80.132812 67.210938 -77.144531 67.421875 -70.90625 C 67.460938 -69.664062 67.285156 -68.828125 66.890625 -68.390625 C 65.097656 -60.015625 60.941406 -53.847656 54.421875 -49.890625 C 54.023438 -49.453125 53.410156 -49.222656 52.578125 -49.203125 C 50.078125 -49.109375 48.785156 -50.304688 48.703125 -52.796875 C 48.648438 -54.460938 49.238281 -55.523438 50.46875 -55.984375 C 52.507812 -57.296875 54.617188 -59.445312 56.796875 -62.4375 C 58.984375 -65.425781 60.046875 -67.953125 59.984375 -70.015625 C 59.910156 -72.097656 58.628906 -73.097656 56.140625 -73.015625 C 49.910156 -72.804688 42.925781 -70.28125 35.1875 -65.4375 C 27.457031 -60.601562 20.679688 -55.070312 14.859375 -48.84375 C 9.046875 -42.613281 6.226562 -37.007812 6.40625 -32.03125 C 6.46875 -29.945312 8.984375 -28.992188 13.953125 -29.171875 C 16.867188 -29.265625 20.082031 -29.679688 23.59375 -30.421875 C 27.101562 -31.171875 30.515625 -31.8125 33.828125 -32.34375 C 37.109375 -33.28125 40.300781 -34.007812 43.40625 -34.53125 C 46.507812 -35.0625 49.304688 -35.367188 51.796875 -35.453125 C 59.691406 -35.722656 63.738281 -32.953125 63.9375 -27.140625 C 63.539062 -26.703125 63.347656 -26.273438 63.359375 -25.859375 C 63.378906 -25.441406 63.191406 -24.8125 62.796875 -23.96875 C 62.859375 -22.3125 63.289062 -21.914062 64.09375 -22.78125 C 71.488281 -25.101562 79.398438 -27.757812 87.828125 -30.75 C 96.253906 -33.75 104.78125 -36.644531 113.40625 -39.4375 C 124.09375 -43.113281 134.78125 -46.695312 145.46875 -50.1875 C 156.164062 -53.675781 166.03125 -57.03125 175.0625 -60.25 L 176.3125 -60.296875 C 178.382812 -60.359375 179.457031 -59.347656 179.53125 -57.265625 C 179.601562 -55.191406 178.816406 -53.921875 177.171875 -53.453125 C 168.140625 -50.234375 158.273438 -46.878906 147.578125 -43.390625 C 136.878906 -39.910156 126.191406 -36.328125 115.515625 -32.640625 C 105.234375 -29.378906 95.265625 -26.019531 85.609375 -22.5625 C 75.953125 -19.113281 67.015625 -16.003906 58.796875 -13.234375 L 56.96875 -11.921875 C 51.050781 -2.578125 42.425781 6.648438 31.09375 15.765625 C 19.769531 24.890625 8.910156 29.628906 -1.484375 29.984375 Z M -1.734375 22.5 C 5.335938 22.257812 13.039062 19.398438 21.375 13.921875 C 29.707031 8.441406 36.875 2.273438 42.875 -4.578125 C 44.070312 -5.867188 43.632812 -6.476562 41.5625 -6.40625 C 28.875 -0.570312 17.84375 5.101562 8.46875 10.625 C -0.90625 16.144531 -5.566406 19.734375 -5.515625 21.390625 C -5.484375 22.222656 -4.222656 22.59375 -1.734375 22.5 Z M -1.734375 22.5 "/></g></g><g style="fill:#5a9a9c;fill-opacity:1;"><g transform="translate(1174.764057, 337.753806)"><path style="stroke:none" d="M 20.625 1.171875 C 11.488281 1.484375 4.265625 0.0664062 -1.046875 -3.078125 C -6.359375 -6.234375 -9.117188 -10.921875 -9.328125 -17.140625 C -9.566406 -24.203125 -6.910156 -31.773438 -1.359375 -39.859375 C 4.191406 -47.953125 10.914062 -55.039062 18.8125 -61.125 C 26.707031 -67.21875 33.976562 -70.378906 40.625 -70.609375 C 48.101562 -70.867188 51.957031 -67.679688 52.1875 -61.046875 C 52.320312 -56.890625 49.648438 -52.84375 44.171875 -48.90625 C 38.703125 -44.976562 33.054688 -42.914062 27.234375 -42.71875 C 20.171875 -42.476562 14.953125 -43.128906 11.578125 -44.671875 C 7.566406 -40.390625 4.289062 -35.8125 1.75 -30.9375 C -0.789062 -26.0625 -1.988281 -21.546875 -1.84375 -17.390625 C -1.570312 -9.503906 5.832031 -5.8125 20.375 -6.3125 C 26.601562 -6.519531 36.296875 -8.71875 49.453125 -12.90625 C 62.609375 -17.101562 77.269531 -23.015625 93.4375 -30.640625 C 109.601562 -38.265625 124.570312 -47.507812 138.34375 -58.375 C 138.738281 -58.800781 139.351562 -59.03125 140.1875 -59.0625 C 142.664062 -59.144531 143.941406 -58.144531 144.015625 -56.0625 C 144.054688 -54.820312 143.476562 -53.765625 142.28125 -52.890625 C 128.101562 -41.597656 112.835938 -31.925781 96.484375 -23.875 C 80.128906 -15.832031 65.054688 -9.703125 51.265625 -5.484375 C 37.484375 -1.273438 27.269531 0.941406 20.625 1.171875 Z M 27 -49.578125 C 30.320312 -49.691406 34.21875 -51.175781 38.6875 -54.03125 C 43.164062 -56.882812 45.378906 -59.144531 45.328125 -60.8125 C 45.265625 -62.476562 43.78125 -63.257812 40.875 -63.15625 C 37.144531 -63.03125 33.238281 -61.753906 29.15625 -59.328125 C 25.082031 -56.898438 21.023438 -53.953125 16.984375 -50.484375 C 18.242188 -50.109375 19.707031 -49.84375 21.375 -49.6875 C 23.050781 -49.539062 24.925781 -49.503906 27 -49.578125 Z M 27 -49.578125 "/></g></g></g></g><g clip-rule="nonzero" clip-path="url(#4776466b41)"><g clip-rule="nonzero" clip-path="url(#0afd04a99a)"><g clip-rule="nonzero" clip-path="url(#6ff0ae2e22)"><g transform="matrix(1,0,0,1,0,393)"><g clip-path="url(#9f1ef1ca47)"><g clip-rule="nonzero" clip-path="url(#737183e126)"><g clip-rule="nonzero" clip-path="url(#c3ffa596ca)"><g clip-rule="nonzero" clip-path="url(#c0b259c310)"><path style=" stroke:none;fill-rule:nonzero;fill:#5a9a9c;fill-opacity:1;" d="M -225.519531 40.882812 L 1005.34375 -1.976562 L 1008.691406 94.210938 L -222.167969 137.066406 Z M -225.519531 40.882812 "/></g></g></g></g></g></g></g></g><g clip-rule="nonzero" clip-path="url(#4c3ade72ba)"><g clip-rule="nonzero" clip-path="url(#1ff4b2c32e)"><g clip-rule="nonzero" clip-path="url(#01c2c52768)"><g transform="matrix(1,0,0,1,995,390)"><g clip-path="url(#1c80276289)"><g clip-rule="nonzero" clip-path="url(#f7d06bc8dc)"><g clip-rule="nonzero" clip-path="url(#5128abf540)"><g clip-rule="nonzero" clip-path="url(#d4ca9eeabe)"><path style=" stroke:none;fill-rule:nonzero;fill:#5a9a9c;fill-opacity:1;" d="M -1.175781 -7.714844 L 213.039062 5.269531 L 212.011719 22.1875 L -2.203125 9.207031 Z M -1.175781 -7.714844 "/></g></g></g></g></g></g></g></g><g clip-rule="nonzero" clip-path="url(#a5f88a6d68)"><g clip-rule="nonzero" clip-path="url(#28c8369430)"><g clip-rule="nonzero" clip-path="url(#fb86aa8250)"><g transform="matrix(1,0,0,1,1189,406)"><g clip-path="url(#543d0fe795)"><g clip-rule="nonzero" clip-path="url(#0a3b5a7d46)"><g clip-rule="nonzero" clip-path="url(#a01b43a0c6)"><g clip-rule="nonzero" clip-path="url(#c90ee48e07)"><path style=" stroke:none;fill-rule:nonzero;fill:#5a9a9c;fill-opacity:1;" d="M -0.15625 -14.886719 L 333.78125 5.347656 L 330.851562 53.648438 L -3.082031 33.410156 Z M -0.15625 -14.886719 "/></g></g></g></g></g></g></g></g></g></svg>